<svg width="178" height="32" viewBox="0 0 178 32" fill="none" xmlns="http://www.w3.org/2000/svg">
<path d="M11.5 25C10.6667 25 9.95833 24.7083 9.375 24.125C8.79167 23.5417 8.5 22.8333 8.5 22C8.5 21.1667 8.79167 20.4583 9.375 19.875C9.95833 19.2917 10.6667 19 11.5 19C12.3333 19 13.0417 19.2917 13.625 19.875C14.2083 20.4583 14.5 21.1667 14.5 22C14.5 22.8333 14.2083 23.5417 13.625 24.125C13.0417 24.7083 12.3333 25 11.5 25ZM11.5 23C11.7833 23 12.0208 22.9042 12.2125 22.7125C12.4042 22.5208 12.5 22.2833 12.5 22C12.5 21.7167 12.4042 21.4792 12.2125 21.2875C12.0208 21.0958 11.7833 21 11.5 21C11.2167 21 10.9792 21.0958 10.7875 21.2875C10.5958 21.4792 10.5 21.7167 10.5 22C10.5 22.2833 10.5958 22.5208 10.7875 22.7125C10.9792 22.9042 11.2167 23 11.5 23ZM13.5 18C11.9667 18 10.6667 17.4667 9.6 16.4C8.53333 15.3333 8 14.0333 8 12.5C8 10.9667 8.53333 9.66667 9.6 8.6C10.6667 7.53333 11.9667 7 13.5 7C15.0333 7 16.3333 7.53333 17.4 8.6C18.4667 9.66667 19 10.9667 19 12.5C19 14.0333 18.4667 15.3333 17.4 16.4C16.3333 17.4667 15.0333 18 13.5 18ZM13.5 16C14.4833 16 15.3125 15.6625 15.9875 14.9875C16.6625 14.3125 17 13.4833 17 12.5C17 11.5167 16.6625 10.6875 15.9875 10.0125C15.3125 9.3375 14.4833 9 13.5 9C12.5167 9 11.6875 9.3375 11.0125 10.0125C10.3375 10.6875 10 11.5167 10 12.5C10 13.4833 10.3375 14.3125 11.0125 14.9875C11.6875 15.6625 12.5167 16 13.5 16ZM4 22C2.9 22 1.95833 21.6083 1.175 20.825C0.391667 20.0417 0 19.1 0 18C0 16.9 0.391667 15.9583 1.175 15.175C1.95833 14.3917 2.9 14 4 14C5.1 14 6.04167 14.3917 6.825 15.175C7.60833 15.9583 8 16.9 8 18C8 19.1 7.60833 20.0417 6.825 20.825C6.04167 21.6083 5.1 22 4 22ZM4 20C4.55 20 5.02083 19.8042 5.4125 19.4125C5.80417 19.0208 6 18.55 6 18C6 17.45 5.80417 16.9792 5.4125 16.5875C5.02083 16.1958 4.55 16 4 16C3.45 16 2.97917 16.1958 2.5875 16.5875C2.19583 16.9792 2 17.45 2 18C2 18.55 2.19583 19.0208 2.5875 19.4125C2.97917 19.8042 3.45 20 4 20Z" fill="#6A37D4"/>
<path d="M27.672 26L30.168 8.12H35.688C37.416 8.12 38.928 8.464 40.224 9.152C41.52 9.84 42.528 10.792 43.248 12.008C43.984 13.224 44.352 14.624 44.352 16.208C44.352 17.616 44.112 18.92 43.632 20.12C43.152 21.304 42.464 22.336 41.568 23.216C40.672 24.096 39.608 24.784 38.376 25.28C37.144 25.76 35.768 26 34.248 26H27.672ZM31.848 22.76H34.248C35.192 22.76 36.048 22.608 36.816 22.304C37.6 21.984 38.272 21.536 38.832 20.96C39.392 20.368 39.824 19.68 40.128 18.896C40.448 18.096 40.608 17.216 40.608 16.256C40.608 15.248 40.4 14.376 39.984 13.64C39.568 12.904 38.976 12.344 38.208 11.96C37.44 11.56 36.52 11.36 35.448 11.36H33.432L31.848 22.76ZM52.2765 26.288C50.8365 26.288 49.5805 25.984 48.5085 25.376C47.4525 24.768 46.6605 23.944 46.1325 22.904C45.6045 21.848 45.4285 20.664 45.6045 19.352L47.1645 8.12H50.8845L49.3245 19.304C49.2285 20.008 49.2925 20.64 49.5165 21.2C49.7565 21.744 50.1325 22.168 50.6445 22.472C51.1565 22.776 51.7645 22.928 52.4685 22.928C53.1565 22.928 53.7885 22.776 54.3645 22.472C54.9405 22.168 55.4205 21.728 55.8045 21.152C56.1885 20.576 56.4365 19.896 56.5485 19.112L58.0845 8.12H61.8045L60.1965 19.544C60.0205 20.856 59.5645 22.024 58.8285 23.048C58.0925 24.056 57.1565 24.848 56.0205 25.424C54.9005 26 53.6525 26.288 52.2765 26.288ZM70.8917 26.288C69.6597 26.288 68.5237 26.08 67.4837 25.664C66.4437 25.232 65.5397 24.632 64.7717 23.864C64.0197 23.08 63.4357 22.16 63.0197 21.104C62.6037 20.048 62.3957 18.888 62.3957 17.624C62.3957 16.28 62.6277 15.016 63.0917 13.832C63.5717 12.648 64.2437 11.608 65.1077 10.712C65.9717 9.816 66.9877 9.112 68.1557 8.6C69.3237 8.088 70.6037 7.832 71.9957 7.832C73.3077 7.832 74.4677 8.056 75.4757 8.504C76.4997 8.936 77.3477 9.52 78.0197 10.256C78.6917 10.976 79.1557 11.776 79.4117 12.656L76.0277 14.144C75.7717 13.28 75.2917 12.576 74.5877 12.032C73.8837 11.472 72.9797 11.192 71.8757 11.192C71.0437 11.192 70.2757 11.352 69.5717 11.672C68.8837 11.992 68.2757 12.448 67.7477 13.04C67.2357 13.616 66.8357 14.296 66.5477 15.08C66.2597 15.864 66.1157 16.72 66.1157 17.648C66.1157 18.72 66.3077 19.656 66.6917 20.456C67.0917 21.24 67.6437 21.848 68.3477 22.28C69.0677 22.712 69.9077 22.928 70.8677 22.928C72.0197 22.928 73.0037 22.64 73.8197 22.064C74.6357 21.472 75.2277 20.744 75.5957 19.88L78.8117 21.56C78.4437 22.44 77.8757 23.24 77.1077 23.96C76.3557 24.664 75.4517 25.232 74.3957 25.664C73.3397 26.08 72.1717 26.288 70.8917 26.288ZM79.9658 26L82.4618 8.12H86.1818L84.9338 17.072L83.9498 16.712L92.3018 8.12H96.9578L88.6778 16.664L89.2778 14.024L94.6058 26H90.5018L87.1178 18.272L84.3578 21.104L83.6858 26H79.9658ZM106.803 26.288C105.555 26.288 104.419 26.08 103.395 25.664C102.387 25.248 101.539 24.656 100.851 23.888C100.163 23.12 99.6908 22.224 99.4348 21.2L102.579 19.976C102.899 20.92 103.435 21.672 104.187 22.232C104.939 22.776 105.787 23.048 106.731 23.048C107.275 23.048 107.747 22.96 108.147 22.784C108.563 22.592 108.883 22.336 109.107 22.016C109.347 21.696 109.467 21.336 109.467 20.936C109.467 20.552 109.347 20.224 109.107 19.952C108.867 19.68 108.475 19.456 107.931 19.28L104.763 18.2C103.451 17.752 102.475 17.136 101.835 16.352C101.211 15.552 100.899 14.576 100.899 13.424C100.899 12.368 101.179 11.424 101.739 10.592C102.315 9.744 103.083 9.072 104.043 8.576C105.019 8.08 106.115 7.832 107.331 7.832C108.467 7.832 109.491 8.024 110.403 8.408C111.331 8.776 112.107 9.304 112.731 9.992C113.355 10.68 113.787 11.496 114.027 12.44L110.907 13.664C110.651 12.848 110.195 12.216 109.539 11.768C108.899 11.304 108.131 11.072 107.235 11.072C106.707 11.072 106.243 11.16 105.843 11.336C105.459 11.496 105.155 11.728 104.931 12.032C104.723 12.336 104.619 12.696 104.619 13.112C104.619 13.544 104.747 13.904 105.003 14.192C105.259 14.48 105.659 14.72 106.203 14.912L109.299 15.992C110.611 16.44 111.587 17.048 112.227 17.816C112.883 18.584 113.211 19.536 113.211 20.672C113.211 21.728 112.915 22.68 112.323 23.528C111.747 24.376 110.971 25.048 109.995 25.544C109.035 26.04 107.971 26.288 106.803 26.288ZM117.311 26L119.351 11.36H114.815L115.271 8.12H127.991L127.535 11.36H123.071L121.031 26H117.311ZM136.247 26.288C134.951 26.288 133.751 26.072 132.647 25.64C131.559 25.208 130.607 24.6 129.791 23.816C128.991 23.032 128.367 22.12 127.919 21.08C127.471 20.024 127.247 18.872 127.247 17.624C127.247 16.232 127.503 14.944 128.015 13.76C128.527 12.576 129.239 11.544 130.151 10.664C131.063 9.768 132.119 9.072 133.319 8.576C134.535 8.08 135.847 7.832 137.255 7.832C138.567 7.832 139.767 8.048 140.855 8.48C141.959 8.912 142.911 9.52 143.711 10.304C144.527 11.072 145.151 11.984 145.583 13.04C146.031 14.08 146.255 15.216 146.255 16.448C146.255 17.84 145.999 19.136 145.487 20.336C144.975 21.52 144.255 22.56 143.327 23.456C142.415 24.352 141.351 25.048 140.135 25.544C138.935 26.04 137.639 26.288 136.247 26.288ZM136.247 22.928C137.111 22.928 137.919 22.768 138.671 22.448C139.439 22.128 140.111 21.68 140.687 21.104C141.263 20.528 141.711 19.848 142.031 19.064C142.367 18.264 142.535 17.4 142.535 16.472C142.535 15.416 142.303 14.496 141.839 13.712C141.391 12.912 140.767 12.296 139.967 11.864C139.183 11.416 138.279 11.192 137.255 11.192C136.391 11.192 135.575 11.352 134.807 11.672C134.055 11.992 133.391 12.44 132.815 13.016C132.239 13.576 131.783 14.248 131.447 15.032C131.127 15.816 130.967 16.68 130.967 17.624C130.967 18.664 131.191 19.584 131.639 20.384C132.103 21.184 132.727 21.808 133.511 22.256C134.311 22.704 135.223 22.928 136.247 22.928ZM147.067 26L149.563 8.12H156.163C157.315 8.12 158.323 8.328 159.187 8.744C160.051 9.144 160.723 9.744 161.203 10.544C161.699 11.344 161.947 12.336 161.947 13.52C161.947 14.368 161.795 15.152 161.491 15.872C161.203 16.592 160.779 17.216 160.219 17.744C159.675 18.272 159.011 18.688 158.227 18.992L161.227 26H157.267L153.931 18.032L156.163 19.52H151.699L150.787 26H147.067ZM152.155 16.28H155.347C155.907 16.28 156.395 16.16 156.811 15.92C157.243 15.68 157.579 15.352 157.819 14.936C158.075 14.52 158.203 14.048 158.203 13.52C158.203 12.864 157.987 12.344 157.555 11.96C157.139 11.56 156.571 11.36 155.851 11.36H152.827L152.155 16.28ZM162.733 26L165.229 8.12H177.253L176.797 11.36H168.493L167.941 15.416H175.765L175.309 18.656H167.485L166.909 22.76H175.213L174.757 26H162.733Z" fill="#6A37D4"/>
</svg>
