<svg width="40" height="40" viewBox="0 0 40 40" fill="none" xmlns="http://www.w3.org/2000/svg">
<rect width="40" height="40" rx="20" fill="#DAC9FF"/>
<path d="M20 29C18.77 29 17.6075 28.7637 16.5125 28.2912C15.4175 27.8187 14.4612 27.1737 13.6437 26.3562C12.8262 25.5387 12.1812 24.5825 11.7088 23.4875C11.2363 22.3925 11 21.23 11 20C11 18.755 11.2437 17.585 11.7312 16.49C12.2187 15.395 12.8787 14.4425 13.7112 13.6325C14.5437 12.8225 15.515 12.1812 16.625 11.7088C17.735 11.2363 18.92 11 20.18 11C21.38 11 22.5125 11.2062 23.5775 11.6187C24.6425 12.0312 25.5762 12.6013 26.3787 13.3288C27.1812 14.0563 27.8187 14.9187 28.2912 15.9162C28.7637 16.9137 29 17.99 29 19.145C29 20.87 28.475 22.1937 27.425 23.1162C26.375 24.0387 25.1 24.5 23.6 24.5H21.935C21.8 24.5 21.7062 24.5375 21.6537 24.6125C21.6012 24.6875 21.575 24.77 21.575 24.86C21.575 25.04 21.6875 25.2988 21.9125 25.6363C22.1375 25.9738 22.25 26.36 22.25 26.795C22.25 27.545 22.0437 28.1 21.6312 28.46C21.2187 28.82 20.675 29 20 29V29M20 20V20V20V20V20V20V20V20V20V20V20V20V20V20V20V20V20M15.05 20.9C15.44 20.9 15.7625 20.7725 16.0175 20.5175C16.2725 20.2625 16.4 19.94 16.4 19.55C16.4 19.16 16.2725 18.8375 16.0175 18.5825C15.7625 18.3275 15.44 18.2 15.05 18.2C14.66 18.2 14.3375 18.3275 14.0825 18.5825C13.8275 18.8375 13.7 19.16 13.7 19.55C13.7 19.94 13.8275 20.2625 14.0825 20.5175C14.3375 20.7725 14.66 20.9 15.05 20.9V20.9M17.75 17.3C18.14 17.3 18.4625 17.1725 18.7175 16.9175C18.9725 16.6625 19.1 16.34 19.1 15.95C19.1 15.56 18.9725 15.2375 18.7175 14.9825C18.4625 14.7275 18.14 14.6 17.75 14.6C17.36 14.6 17.0375 14.7275 16.7825 14.9825C16.5275 15.2375 16.4 15.56 16.4 15.95C16.4 16.34 16.5275 16.6625 16.7825 16.9175C17.0375 17.1725 17.36 17.3 17.75 17.3V17.3M22.25 17.3C22.64 17.3 22.9625 17.1725 23.2175 16.9175C23.4725 16.6625 23.6 16.34 23.6 15.95C23.6 15.56 23.4725 15.2375 23.2175 14.9825C22.9625 14.7275 22.64 14.6 22.25 14.6C21.86 14.6 21.5375 14.7275 21.2825 14.9825C21.0275 15.2375 20.9 15.56 20.9 15.95C20.9 16.34 21.0275 16.6625 21.2825 16.9175C21.5375 17.1725 21.86 17.3 22.25 17.3V17.3M24.95 20.9C25.34 20.9 25.6625 20.7725 25.9175 20.5175C26.1725 20.2625 26.3 19.94 26.3 19.55C26.3 19.16 26.1725 18.8375 25.9175 18.5825C25.6625 18.3275 25.34 18.2 24.95 18.2C24.56 18.2 24.2375 18.3275 23.9825 18.5825C23.7275 18.8375 23.6 19.16 23.6 19.55C23.6 19.94 23.7275 20.2625 23.9825 20.5175C24.2375 20.7725 24.56 20.9 24.95 20.9V20.9M20 27.2C20.135 27.2 20.2437 27.1625 20.3262 27.0875C20.4087 27.0125 20.45 26.915 20.45 26.795C20.45 26.585 20.3375 26.3375 20.1125 26.0525C19.8875 25.7675 19.775 25.34 19.775 24.77C19.775 24.14 19.9925 23.6375 20.4275 23.2625C20.8625 22.8875 21.395 22.7 22.025 22.7H23.6C24.59 22.7 25.4375 22.4113 26.1425 21.8338C26.8475 21.2563 27.2 20.36 27.2 19.145C27.2 17.33 26.5062 15.8187 25.1187 14.6112C23.7312 13.4037 22.085 12.8 20.18 12.8C18.14 12.8 16.4 13.4975 14.96 14.8925C13.52 16.2875 12.8 17.99 12.8 20C12.8 21.995 13.5013 23.6938 14.9037 25.0962C16.3062 26.4987 18.005 27.2 20 27.2V27.2" fill="#5517BF"/>
</svg>
