<svg width="56" height="56" viewBox="0 0 56 56" fill="none" xmlns="http://www.w3.org/2000/svg">
<g filter="url(#filter0_d_105_179)">
<rect width="52" height="52" rx="26" fill="white" shape-rendering="crispEdges"/>
<rect x="1" y="1" width="50" height="50" rx="25" stroke="#6A37D4" stroke-width="2" shape-rendering="crispEdges"/>
<path d="M21.8 16H30.2C33.4 16 36 18.6 36 21.8V30.2C36 31.7383 35.3889 33.2135 34.3012 34.3012C33.2135 35.3889 31.7383 36 30.2 36H21.8C18.6 36 16 33.4 16 30.2V21.8C16 20.2617 16.6111 18.7865 17.6988 17.6988C18.7865 16.6111 20.2617 16 21.8 16ZM21.6 18C20.6452 18 19.7295 18.3793 19.0544 19.0544C18.3793 19.7295 18 20.6452 18 21.6V30.4C18 32.39 19.61 34 21.6 34H30.4C31.3548 34 32.2705 33.6207 32.9456 32.9456C33.6207 32.2705 34 31.3548 34 30.4V21.6C34 19.61 32.39 18 30.4 18H21.6ZM31.25 19.5C31.5815 19.5 31.8995 19.6317 32.1339 19.8661C32.3683 20.1005 32.5 20.4185 32.5 20.75C32.5 21.0815 32.3683 21.3995 32.1339 21.6339C31.8995 21.8683 31.5815 22 31.25 22C30.9185 22 30.6005 21.8683 30.3661 21.6339C30.1317 21.3995 30 21.0815 30 20.75C30 20.4185 30.1317 20.1005 30.3661 19.8661C30.6005 19.6317 30.9185 19.5 31.25 19.5ZM26 21C27.3261 21 28.5979 21.5268 29.5355 22.4645C30.4732 23.4021 31 24.6739 31 26C31 27.3261 30.4732 28.5979 29.5355 29.5355C28.5979 30.4732 27.3261 31 26 31C24.6739 31 23.4021 30.4732 22.4645 29.5355C21.5268 28.5979 21 27.3261 21 26C21 24.6739 21.5268 23.4021 22.4645 22.4645C23.4021 21.5268 24.6739 21 26 21ZM26 23C25.2044 23 24.4413 23.3161 23.8787 23.8787C23.3161 24.4413 23 25.2044 23 26C23 26.7956 23.3161 27.5587 23.8787 28.1213C24.4413 28.6839 25.2044 29 26 29C26.7956 29 27.5587 28.6839 28.1213 28.1213C28.6839 27.5587 29 26.7956 29 26C29 25.2044 28.6839 24.4413 28.1213 23.8787C27.5587 23.3161 26.7956 23 26 23Z" fill="#6A37D2"/>
</g>
<defs>
<filter id="filter0_d_105_179" x="0" y="0" width="56" height="56" filterUnits="userSpaceOnUse" color-interpolation-filters="sRGB">
<feFlood flood-opacity="0" result="BackgroundImageFix"/>
<feColorMatrix in="SourceAlpha" type="matrix" values="0 0 0 0 0 0 0 0 0 0 0 0 0 0 0 0 0 0 127 0" result="hardAlpha"/>
<feOffset dx="4" dy="4"/>
<feComposite in2="hardAlpha" operator="out"/>
<feColorMatrix type="matrix" values="0 0 0 0 0.415686 0 0 0 0 0.215686 0 0 0 0 0.823529 0 0 0 1 0"/>
<feBlend mode="normal" in2="BackgroundImageFix" result="effect1_dropShadow_105_179"/>
<feBlend mode="normal" in="SourceGraphic" in2="effect1_dropShadow_105_179" result="shape"/>
</filter>
</defs>
</svg>
