<svg width="36" height="35" viewBox="0 0 36 35" fill="none" xmlns="http://www.w3.org/2000/svg">
<rect width="36" height="35" rx="17.5" fill="#FBE351"/>
<path d="M7 27.5L12.1044 13.8415L21.2923 22.622L7 27.5V27.5M10.3689 24.2805L17.5661 21.8415L12.9211 17.4024L10.3689 24.2805V24.2805M19.8121 18.2805L18.7401 17.2561L24.4571 11.7927C25.0015 11.2724 25.6566 11.0122 26.4223 11.0122C27.1879 11.0122 27.843 11.2724 28.3875 11.7927L29 12.378L27.9281 13.4024L27.3155 12.8171C27.0773 12.5894 26.7796 12.4756 26.4223 12.4756C26.065 12.4756 25.7672 12.5894 25.529 12.8171L19.8121 18.2805V18.2805M15.7285 14.378L14.6566 13.3537L15.2691 12.7683C15.5073 12.5407 15.6264 12.2642 15.6264 11.939C15.6264 11.6138 15.5073 11.3374 15.2691 11.1098L14.6056 10.4756L15.6775 9.45122L16.3411 10.0854C16.8855 10.6057 17.1578 11.2236 17.1578 11.939C17.1578 12.6545 16.8855 13.2724 16.3411 13.7927L15.7285 14.378V14.378M17.7703 16.3293L16.6984 15.3049L20.3736 11.7927C20.6118 11.565 20.7309 11.2805 20.7309 10.939C20.7309 10.5976 20.6118 10.313 20.3736 10.0854L18.7401 8.52439L19.8121 7.5L21.4455 9.06098C21.9899 9.5813 22.2622 10.2073 22.2622 10.939C22.2622 11.6707 21.9899 12.2967 21.4455 12.8171L17.7703 16.3293V16.3293M21.8538 20.2317L20.7819 19.2073L22.4153 17.6463C22.9598 17.126 23.6148 16.8659 24.3805 16.8659C25.1462 16.8659 25.8012 17.126 26.3457 17.6463L27.9791 19.2073L26.9072 20.2317L25.2738 18.6707C25.0356 18.4431 24.7378 18.3293 24.3805 18.3293C24.0232 18.3293 23.7254 18.4431 23.4872 18.6707L21.8538 20.2317V20.2317M10.3689 24.2805V24.2805V24.2805V24.2805V24.2805" fill="#5D5200"/>
</svg>
