<svg width="56" height="56" viewBox="0 0 56 56" fill="none" xmlns="http://www.w3.org/2000/svg">
<g filter="url(#filter0_d_105_185)">
<rect width="52" height="52" rx="26" fill="white" shape-rendering="crispEdges"/>
<rect x="1" y="1" width="50" height="50" rx="25" stroke="#6A37D4" stroke-width="2" shape-rendering="crispEdges"/>
<path d="M30.5999 19.82C29.9165 19.0395 29.5398 18.0374 29.5399 17H26.4499V29.4C26.4266 30.0712 26.1434 30.7071 25.6602 31.1735C25.177 31.6399 24.5315 31.9004 23.8599 31.9C22.4399 31.9 21.2599 30.74 21.2599 29.3C21.2599 27.58 22.9199 26.29 24.6299 26.82V23.66C21.1799 23.2 18.1599 25.88 18.1599 29.3C18.1599 32.63 20.9199 35 23.8499 35C26.9899 35 29.5399 32.45 29.5399 29.3V23.01C30.7929 23.9099 32.2973 24.3926 33.8399 24.39V21.3C33.8399 21.3 31.9599 21.39 30.5999 19.82Z" fill="#6A37D2"/>
</g>
<defs>
<filter id="filter0_d_105_185" x="0" y="0" width="56" height="56" filterUnits="userSpaceOnUse" color-interpolation-filters="sRGB">
<feFlood flood-opacity="0" result="BackgroundImageFix"/>
<feColorMatrix in="SourceAlpha" type="matrix" values="0 0 0 0 0 0 0 0 0 0 0 0 0 0 0 0 0 0 127 0" result="hardAlpha"/>
<feOffset dx="4" dy="4"/>
<feComposite in2="hardAlpha" operator="out"/>
<feColorMatrix type="matrix" values="0 0 0 0 0.415686 0 0 0 0 0.215686 0 0 0 0 0.823529 0 0 0 1 0"/>
<feBlend mode="normal" in2="BackgroundImageFix" result="effect1_dropShadow_105_185"/>
<feBlend mode="normal" in="SourceGraphic" in2="effect1_dropShadow_105_185" result="shape"/>
</filter>
</defs>
</svg>
